<svg version="1.1" id="Layer_2" xmlns="http://www.w3.org/2000/svg" xmlns:xlink="http://www.w3.org/1999/xlink" x="0px" y="0px"
	 viewBox="0 0 1024 768" enable-background="new 0 0 1024 768" xml:space="preserve">
<g id="casing">
	<path fill="#BC5590" d="M682.5,721.6H344c-9.4,0-17-7.7-17-17V277.5c0-9.4,7.7-17,17-17h338.4c9.4,0,17,7.7,17,17v427.1
		C699.5,713.9,691.8,721.6,682.5,721.6z"/>
	<path fill="#D35E9C" d="M692.5,287.5H334c-3.9,0-7-3.1-7-7V46.7c0-6.9,5.7-12.6,12.6-12.6h347.3c6.9,0,12.6,5.7,12.6,12.6v233.8
		C699.5,284.4,696.4,287.5,692.5,287.5z"/>
	<path fill="#F270AF" d="M679.5,734H347c-11,0-20-9-20-20V330.1c0-8.8,7.2-16,16-16h340.5c8.8,0,16,7.2,16,16V714
		C699.5,725,690.5,734,679.5,734z"/>
</g>
<g>
	<g id="knobs">
		<path id="left_knob_detail" fill="#3F3F3F" d="M472.2,124.5c0-2.9-0.2-5.5-0.6-8.5c-10,0-20,0-30,0c8.7-5,17.4-9.8,26.1-14.7
			c0,0,0-0.1,0-0.2c-1.1-2.7-2.4-5.3-3.8-7.7c0,0,0-0.1-0.1-0.1c-1.5-2.5-3.2-4.9-5-7.2c0,0,0,0,0,0c-8.6,4.8-17.2,9.5-25.8,14.3
			c5-8.3,9.9-16.5,14.9-24.8c0,0-0.1,0-0.1-0.1c-2.4-1.8-4.9-3.4-7.5-4.9c0,0-0.1,0-0.1,0c-2.6-1.4-5.2-2.7-8-3.7c0,0,0,0,0,0
			C427,75.3,422,83.7,417,92.1c0-9.7,0-19.4,0-29c-3-0.4-6-0.6-9-0.6c-3,0-6,0.2-9,0.7c0,9.3,0,18.6,0,28c-5-8.1-9.7-16.1-14.6-24.2
			c0,0-0.1,0-0.1,0c-2.8,1.1-5.5,2.4-8.1,3.8c0,0-0.1,0-0.1,0.1c-2.6,1.4-5,3-7.3,4.8c0,0,0,0,0,0c4.9,8.2,9.8,16.4,14.7,24.6
			c-8.5-4.7-17-9.5-25.5-14.2c0,0,0,0-0.1,0.1c-1.9,2.3-3.5,4.7-5,7.2c0,0,0,0,0,0.1c-1.5,2.5-2.8,5-3.9,7.7c0,0,0,0.2,0,0.2
			c8.7,4.9,17.4,9.7,26.1,14.7c-10,0-20.1,0-30.1,0c-0.4,3-0.6,5.6-0.6,8.5c0,2.9,0.3,5.5,0.7,8.5c9.7,0,19.4,0,29.1,0
			c-8.4,4-16.8,9.4-25.2,14c0,0,0,0.1,0,0.1c1.1,2.7,2.4,5.3,3.9,7.8c0,0,0,0.1,0.1,0.1c1.5,2.5,3.2,4.8,5,7.1c0,0,0,0,0,0
			c8.5-4.7,16.9-9.4,25.4-14.1c-4.9,8.1-9.8,16.3-14.6,24.4c0,0,0.1,0,0.1,0.1c2.3,1.7,4.7,3.3,7.3,4.8c0,0,0.1,0,0.1,0
			c2.6,1.5,5.3,2.7,8.2,3.8c0,0,0,0,0,0c4.8-8.1,9.7-16.2,14.5-24.2c3-5,6-10,9-15c0.1-0.1,0.2-0.3,0.3-0.4
			c2.9,4.9,5.8,9.7,8.7,14.6c5,8.4,10.1,16.8,15.1,25.1c0,0,0.1,0,0.1,0c2.8-1.1,5.4-2.3,7.9-3.7c0,0,0.1,0,0.1-0.1
			c2.6-1.5,5.2-3.1,7.5-4.9c0,0,0,0,0,0c-4.9-8.2-9.8-16.4-14.8-24.6c8.5,4.7,17.1,9.5,25.6,14.2c0,0,0,0,0.1-0.1
			c1.8-2.2,3.5-4.6,5-7c0,0,0,0,0-0.1c1.5-2.5,2.8-5.1,4-7.8c0,0,0,0,0,0c-8.4-4.7-16.8-10.1-25.2-14.1c9.7,0,19.5,0,29.2,0
			C471.9,130,472.2,127.4,472.2,124.5z M405.6,132.6c-0.3-0.2-0.7-0.3-1-0.5c-0.1,0-0.1,0.1-0.2,0.1c-0.2-0.1-0.5-0.3-0.7-0.3h0
			c0,0,0-0.2,0-0.2c0.3,0.1,0.6,0.2,0.9,0.3c0.4,0.2,0.7,0.4,1.1,0.6C405.7,132.7,405.6,132.6,405.6,132.6z"/>
		<g id="left_knob">
			<circle fill="#353334" cx="408.3" cy="127.5" r="45"/>
			<g>
				<path fill="#D1D7D6" d="M425.7,95.4l-8.5,21.8c-1,2.6-3.9,3.8-6.5,2.8c-2.6-1-3.8-3.9-2.8-6.5l8.5-21.8
					c-17.7-4.3-36,5-42.7,22.3c-7.3,18.8,1.9,40,20.8,47.3c18.8,7.3,40.1-2,47.5-20.8C448.6,123.3,441.6,104.2,425.7,95.4z"/>
			</g>
		</g>
		<path id="right_knob_detail" fill="#3F3F3F" d="M682.2,124.5c0-2.9-0.2-5.5-0.6-8.5c-10,0-20,0-30,0c8.7-5,17.4-9.8,26.1-14.7
			c0,0,0-0.1,0-0.2c-1.1-2.7-2.4-5.3-3.8-7.7c0,0,0-0.1-0.1-0.1c-1.5-2.5-3.2-4.9-5-7.2c0,0,0,0,0,0c-8.6,4.8-17.2,9.5-25.8,14.3
			c5-8.3,9.9-16.5,14.9-24.8c0,0-0.1,0-0.1-0.1c-2.4-1.8-4.9-3.4-7.5-4.9c0,0-0.1,0-0.1,0c-2.6-1.4-5.2-2.7-8-3.7c0,0,0,0,0,0
			C637,75.3,632,83.7,627,92.1c0-9.7,0-19.4,0-29c-3-0.4-6-0.6-9-0.6c-3,0-6,0.2-9,0.7c0,9.3,0,18.6,0,28c-5-8.1-9.7-16.1-14.6-24.2
			c0,0-0.1,0-0.1,0c-2.8,1.1-5.5,2.4-8.1,3.8c0,0-0.1,0-0.1,0.1c-2.6,1.4-5,3-7.3,4.8c0,0,0,0,0,0c4.9,8.2,9.8,16.4,14.7,24.6
			c-8.5-4.7-17-9.5-25.5-14.2c0,0,0,0-0.1,0.1c-1.9,2.3-3.5,4.7-5,7.2c0,0,0,0,0,0.1c-1.5,2.5-2.8,5-3.9,7.7c0,0,0,0.2,0,0.2
			c8.7,4.9,17.4,9.7,26.1,14.7c-10,0-20.1,0-30.1,0c-0.4,3-0.6,5.6-0.6,8.5c0,2.9,0.3,5.5,0.7,8.5c9.7,0,19.4,0,29.1,0
			c-8.4,4-16.8,9.4-25.2,14c0,0,0,0.1,0,0.1c1.1,2.7,2.4,5.3,3.9,7.8c0,0,0,0.1,0.1,0.1c1.5,2.5,3.2,4.8,5,7.1c0,0,0,0,0,0
			c8.5-4.7,16.9-9.4,25.4-14.1c-4.9,8.1-9.8,16.3-14.6,24.4c0,0,0.1,0,0.1,0.1c2.3,1.7,4.7,3.3,7.3,4.8c0,0,0.1,0,0.1,0
			c2.6,1.5,5.3,2.7,8.2,3.8c0,0,0,0,0,0c4.8-8.1,9.7-16.2,14.5-24.2c3-5,6-10,9-15c0.1-0.1,0.2-0.3,0.3-0.4
			c2.9,4.9,5.8,9.7,8.7,14.6c5,8.4,10.1,16.8,15.1,25.1c0,0,0.1,0,0.1,0c2.8-1.1,5.4-2.3,7.9-3.7c0,0,0.1,0,0.1-0.1
			c2.6-1.5,5.2-3.1,7.5-4.9c0,0,0,0,0,0c-4.9-8.2-9.8-16.4-14.8-24.6c8.5,4.7,17.1,9.5,25.6,14.2c0,0,0,0,0.1-0.1
			c1.8-2.2,3.5-4.6,5-7c0,0,0,0,0-0.1c1.5-2.5,2.8-5.1,4-7.8c0,0,0,0,0,0c-8.4-4.7-16.8-10.1-25.2-14.1c9.7,0,19.5,0,29.2,0
			C681.9,130,682.2,127.4,682.2,124.5z M615.6,132.6c-0.3-0.2-0.7-0.3-1-0.5c-0.1,0-0.1,0.1-0.2,0.1c-0.2-0.1-0.5-0.3-0.7-0.3h0
			c0,0,0-0.2,0-0.2c0.3,0.1,0.6,0.2,0.9,0.3c0.4,0.2,0.7,0.4,1.1,0.6C615.7,132.7,615.6,132.6,615.6,132.6z"/>
		<g id="right_knob">
			<circle fill="#353334" cx="618.3" cy="127.5" r="45"/>
			<g>
				<path fill="#D1D7D6" d="M654.8,125.5l-23,4.2c-2.7,0.5-5.3-1.3-5.8-4c-0.5-2.7,1.3-5.3,4-5.8l23-4.2
					c-5.6-17.3-23.1-28-41.3-24.7c-19.9,3.6-33.1,22.6-29.5,42.5c3.6,19.9,22.7,33.2,42.5,29.6C643,159.6,655.6,143.7,654.8,125.5z"
					/>
			</g>
		</g>
		<path id="center_knob_detail" fill="#3F3F3F" d="M564.2,199c0-2.3-0.2-4-0.5-7c-8,0-16,0-23.9,0c6.9-3,13.8-7.7,20.8-11.5
			c0,0,0,0,0-0.1c-0.9-2.1-1.9-4.2-3.1-6.1c0,0,0-0.1-0.1-0.1c-1.2-2-2.5-3.9-4-5.7c0,0,0,0,0,0c-6.8,3.8-13.7,7.6-20.5,11.4
			c3.9-6.6,7.9-13.2,11.8-19.8c0,0,0,0-0.1-0.1c-1.9-1.4-3.9-2.7-6-3.9c0,0,0,0-0.1,0c-2-1.1-4.2-2.1-6.3-3c0,0,0.4,0,0.4,0
			c-4,6.7-8.6,13.4-11.6,20c0-7.7,0-15.4,0-23.1c-3-0.3-5.6-0.5-8-0.4c-2.4,0-5,0.2-8,0.5c0,7.4,0,14.8,0,22.3
			c-2-6.4-7.3-12.8-11.2-19.3c0,0,0.1,0,0.1,0c-2.2,0.9-4.3,1.9-6.4,3c0,0,0,0,0,0c-2,1.1-4,2.4-5.8,3.8c0,0,0,0,0,0
			c3.9,6.5,7.8,13.1,11.7,19.6c-6.8-3.8-13.6-7.5-20.3-11.3c0,0,0,0,0,0.1c-1.5,1.8-2.8,3.7-4,5.7c0,0,0,0,0,0.1
			c-1.2,2-2.2,4-3.1,6.1c0,0,0,0,0,0c6.9,3.9,13.8,8.6,20.8,11.6c-8,0-16,0-24,0c-0.3,3-0.5,4.7-0.5,7c0,2.3,0.2,4,0.6,7
			c7.7,0,15.5,0,23.2,0c-6.7,3-13.4,7.4-20.1,11.1c0,0,0,0,0,0c0.9,2.2,1.9,4.2,3.1,6.2c0,0,0,0,0.1,0.1c1.2,2,2.5,3.9,4,5.6
			c0,0,0,0,0,0c6.7-3.7,13.5-7.5,20.2-11.2c-3.9,6.5-7.8,13-11.6,19.5c0,0,0,0,0.1,0.1c1.8,1.4,3.8,2.7,5.8,3.8c0,0,0,0,0.1,0
			c2.1,1.2,4.3,2.2,6.5,3.1c0,0,0,0,0,0c3.9-6.4,7.7-12.9,11.6-19.3c2.4-4,4.8-8,7.2-12c0.1-0.1,0.1-0.2,0.2-0.3
			c2.3,3.9,4.6,7.7,7,11.6c4,6.7,8,13.4,12,20c0,0,0.1,0,0.1,0c2.2-0.8,4.3-1.8,6.3-2.9c0,0,0,0,0.1,0c2.1-1.2,4.1-2.5,6-3.9
			c0,0,0,0,0,0c-3.9-6.5-7.8-13.1-11.8-19.6c6.8,3.8,13.6,7.5,20.4,11.3c0,0,0,0,0-0.1c1.4-1.8,2.8-3.7,4-5.6c0,0,0,0,0-0.1
			c1.2-2,2.3-4.1,3.2-6.3c0,0,0,0.1,0,0.1c-6.7-3.7-13.4-8.1-20.1-11.1c7.7,0,15.5,0,23.3,0C564,203,564.2,201.3,564.2,199z
			 M511.1,205.5c-0.3-0.1-0.5-0.2-0.8-0.4c0,0-0.1,0.1-0.1,0.1c-0.2-0.1-0.4-0.2-0.6-0.2c0,0,0,0,0,0c0,0,0-0.1,0-0.1
			c0.2,0.1,0.5,0.2,0.7,0.3c0.3,0.2,0.6,0.3,0.9,0.5C511.2,205.6,511.1,205.5,511.1,205.5z"/>
		<g id="center_knob">
			<circle fill="#353334" cx="513.3" cy="199.1" r="37.8"/>
			<g>
				<path fill="#D1D7D6" d="M520.3,169.3l-2,19.5c-0.2,2.3-2.3,4-4.6,3.7c-2.3-0.2-4-2.3-3.7-4.6l2-19.5c-15.2,0.5-28,12-29.6,27.5
					c-1.8,16.9,10.4,32,27.3,33.7c16.9,1.8,32-10.5,33.8-27.4C545,186.8,535.1,172.9,520.3,169.3z"/>
			</g>
		</g>
	</g>
	<circle id="led" fill="#F45858" cx="513.7" cy="76.2" r="9.8"/>
</g>
<g>
	<path fill="#353334" d="M636.7,705.1h-247c-16.5,0-30-13.5-30-30V361.6c0-6.6,5.4-12,12-12h283c6.6,0,12,5.4,12,12v313.5
		C666.7,691.6,653.2,705.1,636.7,705.1z"/>
	<g>
		<path id="footplate" fill="#D1D7D6" d="M637.5,684.1H389c-6.6,0-12-5.4-12-12v-150c0-6.6,5.4-12,12-12h248.5c6.6,0,12,5.4,12,12
			v150C649.5,678.7,644.1,684.1,637.5,684.1z"/>
		<g id="lower_ridges">
			<line fill="#CCCCCC" stroke="#CCCCCC" stroke-width="3" stroke-miterlimit="10" x1="386" y1="528.5" x2="642" y2="528.5"/>
			<line fill="#CCCCCC" stroke="#CCCCCC" stroke-width="3" stroke-miterlimit="10" x1="386" y1="535.5" x2="642" y2="535.5"/>
			<line fill="#CCCCCC" stroke="#CCCCCC" stroke-width="3" stroke-miterlimit="10" x1="386" y1="543.5" x2="642" y2="543.5"/>
			<line fill="#CCCCCC" stroke="#CCCCCC" stroke-width="3" stroke-miterlimit="10" x1="386" y1="550.5" x2="642" y2="550.5"/>
			<line fill="#CCCCCC" stroke="#CCCCCC" stroke-width="3" stroke-miterlimit="10" x1="386" y1="557.5" x2="642" y2="557.5"/>
			<line fill="#CCCCCC" stroke="#CCCCCC" stroke-width="3" stroke-miterlimit="10" x1="386" y1="565.5" x2="642" y2="565.5"/>
		</g>
		<g id="upper_ridges">
			<line fill="#CCCCCC" stroke="#CCCCCC" stroke-width="3" stroke-miterlimit="10" x1="386" y1="633.5" x2="642" y2="633.5"/>
			<line fill="#CCCCCC" stroke="#CCCCCC" stroke-width="3" stroke-miterlimit="10" x1="386" y1="641.5" x2="642" y2="641.5"/>
			<line fill="#CCCCCC" stroke="#CCCCCC" stroke-width="3" stroke-miterlimit="10" x1="386" y1="648.5" x2="642" y2="648.5"/>
			<line fill="#CCCCCC" stroke="#CCCCCC" stroke-width="3" stroke-miterlimit="10" x1="386" y1="655.5" x2="642" y2="655.5"/>
			<line fill="#CCCCCC" stroke="#CCCCCC" stroke-width="3" stroke-miterlimit="10" x1="386" y1="663.5" x2="642" y2="663.5"/>
			<line fill="#CCCCCC" stroke="#CCCCCC" stroke-width="3" stroke-miterlimit="10" x1="386" y1="670.5" x2="642" y2="670.5"/>
		</g>
	</g>
	<g>
		<path id="title_plate" fill="#B6BAB9" d="M647.7,493.6h-269c-4.4,0-8-3.6-8-8v-110c0-4.4,3.6-8,8-8h269c4.4,0,8,3.6,8,8v110
			C655.7,490,652.1,493.6,647.7,493.6z"/>

			<line id="lower_stripe" fill="#808080" stroke="#B3B3B3" stroke-width="2" stroke-miterlimit="10" x1="413" y1="469" x2="619" y2="469"/>

			<line id="upper_stripe" fill="#808080" stroke="#B3B3B3" stroke-width="2" stroke-miterlimit="10" x1="413" y1="440" x2="619" y2="440"/>
		<g id="input_outputs">
			<polygon id="input_detail_1" fill="#808080" points="649.2,389.5 641.2,381.5 649.2,373.5 			"/>
			<polygon id="output_detail_1" fill="#808080" points="385.2,389.5 377.2,381.5 385.2,373.5 			"/>
			<polygon id="output_detail_2" fill="#808080" points="385.2,488.1 377.2,480.1 385.2,472.1 			"/>
		</g>
	</g>
</g>
</svg>
