<svg xmlns="http://www.w3.org/2000/svg" viewBox="0 0 1024 768"><path fill="#BC5590" d="M682.5 721.6H344c-9.4 0-17-7.7-17-17V277.5c0-9.4 7.7-17 17-17h338.4c9.4 0 17 7.7 17 17v427.1c.1 9.3-7.6 17-16.9 17z"/><path fill="#D35E9C" d="M692.5 287.5H334c-3.9 0-7-3.1-7-7V46.7c0-6.9 5.7-12.6 12.6-12.6h347.3c6.9 0 12.6 5.7 12.6 12.6v233.8c0 3.9-3.1 7-7 7z"/><path fill="#F270AF" d="M679.5 734H347c-11 0-20-9-20-20V330.1c0-8.8 7.2-16 16-16h340.5c8.8 0 16 7.2 16 16V714c0 11-9 20-20 20z"/><g><path fill="#3F3F3F" d="M472.2 124.5c0-2.9-.2-5.5-.6-8.5h-30c8.7-5 17.4-9.8 26.1-14.7v-.2c-1.1-2.7-2.4-5.3-3.8-7.7 0 0 0-.1-.1-.1-1.5-2.5-3.2-4.9-5-7.2-8.6 4.8-17.2 9.5-25.8 14.3 5-8.3 9.9-16.5 14.9-24.8 0 0-.1 0-.1-.1-2.4-1.8-4.9-3.4-7.5-4.9h-.1c-2.6-1.4-5.2-2.7-8-3.7C427 75.3 422 83.7 417 92.1v-29c-3-.4-6-.6-9-.6s-6 .2-9 .7v28c-5-8.1-9.7-16.1-14.6-24.2h-.1c-2.8 1.1-5.5 2.4-8.1 3.8 0 0-.1 0-.1.1-2.6 1.4-5 3-7.3 4.8l14.7 24.6c-8.5-4.7-17-9.5-25.5-14.2l-.1.1c-1.9 2.3-3.5 4.7-5 7.2v.1c-1.5 2.5-2.8 5-3.9 7.7v.2c8.7 4.9 17.4 9.7 26.1 14.7H345c-.4 3-.6 5.6-.6 8.5 0 2.9.3 5.5.7 8.5h29.1c-8.4 4-16.8 9.4-25.2 14v.1c1.1 2.7 2.4 5.3 3.9 7.8 0 0 0 .1.1.1 1.5 2.5 3.2 4.8 5 7.1 8.5-4.7 16.9-9.4 25.4-14.1-4.9 8.1-9.8 16.3-14.6 24.4 0 0 .1 0 .1.1 2.3 1.7 4.7 3.3 7.3 4.8h.1c2.6 1.5 5.3 2.7 8.2 3.8 4.8-8.1 9.7-16.2 14.5-24.2l9-15c.1-.1.2-.3.3-.4 2.9 4.9 5.8 9.7 8.7 14.6 5 8.4 10.1 16.8 15.1 25.1h.1c2.8-1.1 5.4-2.3 7.9-3.7 0 0 .1 0 .1-.1 2.6-1.5 5.2-3.1 7.5-4.9-4.9-8.2-9.8-16.4-14.8-24.6 8.5 4.7 17.1 9.5 25.6 14.2l.1-.1c1.8-2.2 3.5-4.6 5-7v-.1c1.5-2.5 2.8-5.1 4-7.8-8.4-4.7-16.8-10.1-25.2-14.1h29.2c.3-3.1.6-5.7.6-8.6zm-66.6 8.1c-.3-.2-.7-.3-1-.5-.1 0-.1.1-.2.1-.2-.1-.5-.3-.7-.3v-.2l.9.3c.4.2.7.4 1.1.6 0 .1-.1 0-.1 0z"/><circle fill="#353334" cx="408.3" cy="127.5" r="45"/><path fill="#D1D7D6" d="M425.7 95.4l-8.5 21.8c-1 2.6-3.9 3.8-6.5 2.8s-3.8-3.9-2.8-6.5l8.5-21.8c-17.7-4.3-36 5-42.7 22.3-7.3 18.8 1.9 40 20.8 47.3 18.8 7.3 40.1-2 47.5-20.8 6.6-17.2-.4-36.3-16.3-45.1z"/><path fill="#3F3F3F" d="M682.2 124.5c0-2.9-.2-5.5-.6-8.5h-30c8.7-5 17.4-9.8 26.1-14.7v-.2c-1.1-2.7-2.4-5.3-3.8-7.7 0 0 0-.1-.1-.1-1.5-2.5-3.2-4.9-5-7.2-8.6 4.8-17.2 9.5-25.8 14.3 5-8.3 9.9-16.5 14.9-24.8 0 0-.1 0-.1-.1-2.4-1.8-4.9-3.4-7.5-4.9h-.1c-2.6-1.4-5.2-2.7-8-3.7C637 75.3 632 83.7 627 92.1v-29c-3-.4-6-.6-9-.6s-6 .2-9 .7v28c-5-8.1-9.7-16.1-14.6-24.2h-.1c-2.8 1.1-5.5 2.4-8.1 3.8 0 0-.1 0-.1.1-2.6 1.4-5 3-7.3 4.8l14.7 24.6c-8.5-4.7-17-9.5-25.5-14.2l-.1.1c-1.9 2.3-3.5 4.7-5 7.2v.1c-1.5 2.5-2.8 5-3.9 7.7v.2c8.7 4.9 17.4 9.7 26.1 14.7H555c-.4 3-.6 5.6-.6 8.5 0 2.9.3 5.5.7 8.5h29.1c-8.4 4-16.8 9.4-25.2 14v.1c1.1 2.7 2.4 5.3 3.9 7.8 0 0 0 .1.1.1 1.5 2.5 3.2 4.8 5 7.1 8.5-4.7 16.9-9.4 25.4-14.1-4.9 8.1-9.8 16.3-14.6 24.4 0 0 .1 0 .1.1 2.3 1.7 4.7 3.3 7.3 4.8h.1c2.6 1.5 5.3 2.7 8.2 3.8 4.8-8.1 9.7-16.2 14.5-24.2l9-15c.1-.1.2-.3.3-.4 2.9 4.9 5.8 9.7 8.7 14.6 5 8.4 10.1 16.8 15.1 25.1h.1c2.8-1.1 5.4-2.3 7.9-3.7 0 0 .1 0 .1-.1 2.6-1.5 5.2-3.1 7.5-4.9-4.9-8.2-9.8-16.4-14.8-24.6 8.5 4.7 17.1 9.5 25.6 14.2l.1-.1c1.8-2.2 3.5-4.6 5-7v-.1c1.5-2.5 2.8-5.1 4-7.8-8.4-4.7-16.8-10.1-25.2-14.1h29.2c.3-3.1.6-5.7.6-8.6zm-66.6 8.1c-.3-.2-.7-.3-1-.5-.1 0-.1.1-.2.1-.2-.1-.5-.3-.7-.3v-.2l.9.3c.4.2.7.4 1.1.6 0 .1-.1 0-.1 0z"/><circle fill="#353334" cx="618.3" cy="127.5" r="45"/><path fill="#D1D7D6" d="M654.8 125.5l-23 4.2c-2.7.5-5.3-1.3-5.8-4s1.3-5.3 4-5.8l23-4.2c-5.6-17.3-23.1-28-41.3-24.7-19.9 3.6-33.1 22.6-29.5 42.5 3.6 19.9 22.7 33.2 42.5 29.6 18.3-3.5 30.9-19.4 30.1-37.6z"/><path fill="#3F3F3F" d="M564.2 199c0-2.3-.2-4-.5-7h-23.9c6.9-3 13.8-7.7 20.8-11.5v-.1c-.9-2.1-1.9-4.2-3.1-6.1 0 0 0-.1-.1-.1-1.2-2-2.5-3.9-4-5.7-6.8 3.8-13.7 7.6-20.5 11.4 3.9-6.6 7.9-13.2 11.8-19.8l-.1-.1c-1.9-1.4-3.9-2.7-6-3.9h-.1c-2-1.1-4.2-2.1-6.3-3h.4c-4 6.7-8.6 13.4-11.6 20V150c-3-.3-5.6-.5-8-.4-2.4 0-5 .2-8 .5v22.3c-2-6.4-7.3-12.8-11.2-19.3h.1c-2.2.9-4.3 1.9-6.4 3-2 1.1-4 2.4-5.8 3.8 3.9 6.5 7.8 13.1 11.7 19.6-6.8-3.8-13.6-7.5-20.3-11.3v.1c-1.5 1.8-2.8 3.7-4 5.7v.1c-1.2 2-2.2 4-3.1 6.1 6.9 3.9 13.8 8.6 20.8 11.6h-24c-.3 3-.5 4.7-.5 7s.2 4 .6 7h23.2c-6.7 3-13.4 7.4-20.1 11.1.9 2.2 1.9 4.2 3.1 6.2l.1.1c1.2 2 2.5 3.9 4 5.6 6.7-3.7 13.5-7.5 20.2-11.2-3.9 6.5-7.8 13-11.6 19.5l.1.1c1.8 1.4 3.8 2.7 5.8 3.8h.1c2.1 1.2 4.3 2.2 6.5 3.1 3.9-6.4 7.7-12.9 11.6-19.3l7.2-12c.1-.1.1-.2.2-.3 2.3 3.9 4.6 7.7 7 11.6 4 6.7 8 13.4 12 20h.1c2.2-.8 4.3-1.8 6.3-2.9h.1c2.1-1.2 4.1-2.5 6-3.9-3.9-6.5-7.8-13.1-11.8-19.6 6.8 3.8 13.6 7.5 20.4 11.3v-.1c1.4-1.8 2.8-3.7 4-5.6v-.1c1.2-2 2.3-4.1 3.2-6.3v.1c-6.7-3.7-13.4-8.1-20.1-11.1h23.3c.2-2.9.4-4.6.4-6.9zm-53.1 6.5c-.3-.1-.5-.2-.8-.4l-.1.1c-.2-.1-.4-.2-.6-.2v-.1c.2.1.5.2.7.3.3.2.6.3.9.5 0-.1-.1-.2-.1-.2z"/><g><circle fill="#353334" cx="513.3" cy="199.1" r="37.8"/><path fill="#D1D7D6" d="M520.3 169.3l-2 19.5c-.2 2.3-2.3 4-4.6 3.7-2.3-.2-4-2.3-3.7-4.6l2-19.5c-15.2.5-28 12-29.6 27.5-1.8 16.9 10.4 32 27.3 33.7 16.9 1.8 32-10.5 33.8-27.4 1.5-15.4-8.4-29.3-23.2-32.9z"/></g><circle fill="#F45858" cx="513.7" cy="76.2" r="9.8"/></g><g><path fill="#353334" d="M636.7 705.1h-247c-16.5 0-30-13.5-30-30V361.6c0-6.6 5.4-12 12-12h283c6.6 0 12 5.4 12 12v313.5c0 16.5-13.5 30-30 30z"/><path fill="#D1D7D6" d="M637.5 684.1H389c-6.6 0-12-5.4-12-12v-150c0-6.6 5.4-12 12-12h248.5c6.6 0 12 5.4 12 12v150c0 6.6-5.4 12-12 12z"/><g fill="#CCC" stroke="#CCC" stroke-width="3" stroke-miterlimit="10"><path d="M386 528.5h256M386 535.5h256M386 543.5h256M386 550.5h256M386 557.5h256M386 565.5h256"/></g><g fill="#CCC" stroke="#CCC" stroke-width="3" stroke-miterlimit="10"><path d="M386 633.5h256M386 641.5h256M386 648.5h256M386 655.5h256M386 663.5h256M386 670.5h256"/></g><g><path fill="#B6BAB9" d="M647.7 493.6h-269c-4.4 0-8-3.6-8-8v-110c0-4.4 3.6-8 8-8h269c4.4 0 8 3.6 8 8v110c0 4.4-3.6 8-8 8z"/><path fill="gray" stroke="#B3B3B3" stroke-width="2" stroke-miterlimit="10" d="M413 469h206M413 440h206"/><g fill="gray"><path d="M649.2 389.5l-8-8 8-8M385.2 389.5l-8-8 8-8M385.2 488.1l-8-8 8-8"/></g></g></g></svg>