<svg xmlns="http://www.w3.org/2000/svg" viewBox="0 0 792 1224"><path fill="#978195" d="M527.9 873.1H266.1c-7.3 0-13.1-6-13.1-13.1V529.6c0-7.3 6-13.1 13.1-13.1h261.7c7.3 0 13.1 6 13.1 13.1V860c.1 7.2-5.8 13.1-13 13.1z"/><path fill="#AD95AC" d="M535.6 537.4H258.3c-3 0-5.4-2.4-5.4-5.4V351.1c0-5.3 4.4-9.7 9.7-9.7h268.6c5.3 0 9.7 4.4 9.7 9.7v180.8c.1 3.1-2.3 5.5-5.3 5.5z"/><path fill="#C2ADC7" d="M525.6 882.7H268.4c-8.5 0-15.5-7-15.5-15.5V570.3c0-6.8 5.6-12.4 12.4-12.4h263.4c6.8 0 12.4 5.6 12.4 12.4v296.9c-.1 8.5-7 15.5-15.5 15.5z"/><g><path fill="#3F3F3F" d="M365.2 411.3c0-2.2-.2-4.3-.5-6.6h-23.2c6.7-3.9 13.5-7.6 20.2-11.4v-.2c-.9-2.1-1.9-4.1-2.9-6 0 0 0-.1-.1-.1-1.2-1.9-2.5-3.8-3.9-5.6-6.7 3.7-13.3 7.3-20 11.1 3.9-6.4 7.7-12.8 11.5-19.2 0 0-.1 0-.1-.1-1.9-1.4-3.8-2.6-5.8-3.8h-.1c-2-1.1-4-2.1-6.2-2.9-4 6.5-7.9 13-11.8 19.5v-22.4c-2.3-.3-4.6-.5-7-.5s-4.6.2-7 .5v21.7c-3.9-6.3-7.5-12.5-11.3-18.7h-.1c-2.2.9-4.3 1.9-6.3 2.9 0 0-.1 0-.1.1-2 1.1-3.9 2.3-5.6 3.7 3.8 6.3 7.6 12.7 11.4 19-6.6-3.6-13.1-7.3-19.7-11l-.1.1c-1.5 1.8-2.7 3.6-3.9 5.6v.1c-1.2 1.9-2.2 3.9-3 6v.2c6.7 3.8 13.5 7.5 20.2 11.4h-23.3c-.3 2.3-.5 4.3-.5 6.6 0 2.2.2 4.3.5 6.6H289c-6.5 3.1-13 7.3-19.5 10.8v.1c.9 2.1 1.9 4.1 3 6 0 0 0 .1.1.1 1.2 1.9 2.5 3.7 3.9 5.5 6.6-3.6 13.1-7.3 19.6-10.9-3.8 6.3-7.6 12.6-11.3 18.9 0 0 .1 0 .1.1 1.8 1.3 3.6 2.6 5.6 3.7h.1c2 1.2 4.1 2.1 6.3 2.9 3.7-6.3 7.5-12.5 11.2-18.7 2.3-3.9 4.6-7.7 7-11.6.1-.1.2-.2.2-.3 2.2 3.8 4.5 7.5 6.7 11.3 3.9 6.5 7.8 13 11.7 19.4h.1c2.2-.9 4.2-1.8 6.1-2.9 0 0 .1 0 .1-.1 2-1.2 4-2.4 5.8-3.8-3.8-6.3-7.6-12.7-11.4-19 6.6 3.6 13.2 7.3 19.8 11l.1-.1c1.4-1.7 2.7-3.6 3.9-5.4v-.1c1.2-1.9 2.2-3.9 3.1-6-6.5-3.6-13-7.8-19.5-10.9h22.6c.6-2.4.8-4.4.8-6.6zm-51.5 6.3c-.2-.2-.5-.2-.8-.4-.1 0-.1.1-.2.1-.2-.1-.4-.2-.5-.2v-.2c.2.1.5.2.7.2.3.1.6.3.8.5.1 0 0 0 0 0z"/><circle fill="#353334" cx="315.8" cy="413.6" r="34.8"/><path fill="#D1D7D6" d="M329.3 388.8l-6.6 16.9c-.8 2-3 2.9-5 2.2-2-.8-2.9-3-2.2-5l6.6-16.9c-13.7-3.3-27.8 3.9-33 17.2-5.6 14.5 1.5 30.9 16.1 36.6 14.5 5.6 31-1.5 36.7-16.1 5.1-13.3-.3-28.1-12.6-34.9z"/><path fill="#3F3F3F" d="M527.6 411.3c0-2.2-.2-4.3-.5-6.6h-23.2c6.7-3.9 13.5-7.6 20.2-11.4v-.2c-.9-2.1-1.9-4.1-2.9-6 0 0 0-.1-.1-.1-1.2-1.9-2.5-3.8-3.9-5.6-6.7 3.7-13.3 7.3-20 11.1 3.9-6.4 7.7-12.8 11.5-19.2 0 0-.1 0-.1-.1-1.9-1.4-3.8-2.6-5.8-3.8h-.1c-2-1.1-4-2.1-6.2-2.9-4 6.5-7.9 13-11.8 19.5v-22.4c-2.3-.3-4.6-.5-7-.5s-4.6.2-7 .5v21.7c-3.9-6.3-7.5-12.5-11.3-18.7h-.1c-2.2.9-4.3 1.9-6.3 2.9 0 0-.1 0-.1.1-2 1.1-3.9 2.3-5.6 3.7 3.8 6.3 7.6 12.7 11.4 19-6.6-3.6-13.1-7.3-19.7-11l-.1.1c-1.5 1.8-2.7 3.6-3.9 5.6v.1c-1.2 1.9-2.2 3.9-3 6v.2c6.7 3.8 13.5 7.5 20.2 11.4h-23.3c-.3 2.3-.5 4.3-.5 6.6 0 2.2.2 4.3.5 6.6h22.5c-6.5 3.1-13 7.3-19.5 10.8v.1c.9 2.1 1.9 4.1 3 6 0 0 0 .1.1.1 1.2 1.9 2.5 3.7 3.9 5.5 6.6-3.6 13.1-7.3 19.6-10.9-3.8 6.3-7.6 12.6-11.3 18.9 0 0 .1 0 .1.1 1.8 1.3 3.6 2.6 5.6 3.7h.1c2 1.2 4.1 2.1 6.3 2.9 3.7-6.3 7.5-12.5 11.2-18.7 2.3-3.9 4.6-7.7 7-11.6.1-.1.2-.2.2-.3 2.2 3.8 4.5 7.5 6.7 11.3 3.9 6.5 7.8 13 11.7 19.4h.1c2.2-.9 4.2-1.8 6.1-2.9 0 0 .1 0 .1-.1 2-1.2 4-2.4 5.8-3.8-3.8-6.3-7.6-12.7-11.4-19 6.6 3.6 13.2 7.3 19.8 11l.1-.1c1.4-1.7 2.7-3.6 3.9-5.4v-.1c1.2-1.9 2.2-3.9 3.1-6-6.5-3.6-13-7.8-19.5-10.9h22.6c.6-2.4.8-4.4.8-6.6zm-51.5 6.3c-.2-.2-.5-.2-.8-.4-.1 0-.1.1-.2.1-.2-.1-.4-.2-.5-.2v-.2c.2.1.5.2.7.2.4.1.6.3.8.5.1 0 0 0 0 0z"/><g><circle fill="#353334" cx="478.2" cy="413.6" r="34.8"/><path fill="#D1D7D6" d="M482.4 385.7l-.4 18.1c0 2.1-1.8 3.8-3.9 3.8-2.1 0-3.8-1.8-3.8-3.9l.4-18.1c-14 1.5-24.8 13.1-25.2 27.4-.4 15.6 11.9 28.6 27.6 29s28.7-12 29.1-27.5c.2-14.6-9.9-26.6-23.8-28.8z"/></g><circle fill="#F45858" cx="397.3" cy="373.9" r="7.6"/></g><g><path fill="#353334" d="M492.4 860.4h-191c-12.8 0-23.2-10.4-23.2-23.2V594.7c0-5.1 4.2-9.3 9.3-9.3h218.9c5.1 0 9.3 4.2 9.3 9.3v242.5c0 12.7-10.5 23.2-23.3 23.2z"/><path fill="#D1D7D6" d="M493.1 844.1H300.9c-5.1 0-9.3-4.2-9.3-9.3v-116c0-5.1 4.2-9.3 9.3-9.3h192.2c5.1 0 9.3 4.2 9.3 9.3v116c-.1 5.1-4.2 9.3-9.3 9.3z"/><g fill="none" stroke="#CCC" stroke-width="3" stroke-miterlimit="10"><path d="M298.5 723.8h198M298.5 729.2h198M298.5 735.4h198M298.5 740.8h198M298.5 746.2h198M298.5 752.4h198"/></g><g fill="none" stroke="#CCC" stroke-width="3" stroke-miterlimit="10"><path d="M298.5 805h198M298.5 811.2h198M298.5 816.6h198M298.5 822h198M298.5 828.2h198M298.5 833.6h198"/></g><g><path fill="#B6BAB9" d="M501 696.8H292.9c-3.4 0-6.2-2.8-6.2-6.2v-85.1c0-3.4 2.8-6.2 6.2-6.2H501c3.4 0 6.2 2.8 6.2 6.2v85.1c-.1 3.4-2.8 6.2-6.2 6.2z"/><path fill="none" stroke="#B3B3B3" stroke-width="2" stroke-miterlimit="10" d="M319.4 677.7h159.4M319.4 655.3h159.4"/><g fill="gray"><path d="M502.1 616.3l-6.2-6.2 6.2-6.2M297.9 616.3l-6.2-6.2 6.2-6.2M297.9 692.5l-6.2-6.2 6.2-6.2"/></g></g></g></svg>