<svg xmlns="http://www.w3.org/2000/svg" viewBox="0 0 792 1224"><path fill="#D8B528" d="M528.9 873.1H267c-7.3 0-13.1-6-13.1-13.1V529.6c0-7.3 6-13.1 13.1-13.1h261.7c7.3 0 13.1 6 13.1 13.1V860c.2 7.2-5.7 13.1-12.9 13.1z"/><path fill="#E2BF22" d="M536.6 537.4H259.3c-3 0-5.4-2.4-5.4-5.4V351.1c0-5.3 4.4-9.7 9.7-9.7h268.6c5.3 0 9.7 4.4 9.7 9.7v180.8c.1 3.1-2.3 5.5-5.3 5.5z"/><path fill="#F8D706" d="M526.5 882.7H269.4c-8.5 0-15.5-7-15.5-15.5V570.3c0-6.8 5.6-12.4 12.4-12.4h263.4c6.8 0 12.4 5.6 12.4 12.4v296.9c-.1 8.5-7.1 15.5-15.6 15.5z"/><g><path fill="#3F3F3F" d="M350.4 488.9c0-1.8-.2-3.1-.4-5.4h-18.5c5.3-2.3 10.7-6 16.1-8.9v-.1c-.7-1.6-1.5-3.2-2.4-4.7 0 0 0-.1-.1-.1-.9-1.5-1.9-3-3.1-4.4-5.3 2.9-10.6 5.9-15.9 8.8 3-5.1 6.1-10.2 9.1-15.3l-.1-.1c-1.5-1.1-3-2.1-4.6-3h-.1c-1.5-.9-3.2-1.6-4.9-2.3h.3c-3.1 5.2-6.7 10.4-9 15.5V451c-2.3-.2-4.3-.4-6.2-.3-1.9 0-3.9.2-6.2.4v17.2c-1.5-4.9-5.6-9.9-8.7-14.9h.1c-1.7.7-3.3 1.5-4.9 2.3-1.5.9-3.1 1.9-4.5 2.9 3 5 6 10.1 9 15.2-5.3-2.9-10.5-5.8-15.7-8.7v.1c-1.2 1.4-2.2 2.9-3.1 4.4v.1c-.9 1.5-1.7 3.1-2.4 4.7 5.3 3 10.7 6.7 16.1 9h-18.6c-.2 2.3-.4 3.6-.4 5.4 0 1.8.2 3.1.5 5.4h17.9c-5.2 2.3-10.4 5.7-15.5 8.6.7 1.7 1.5 3.2 2.4 4.8l.1.1c.9 1.5 1.9 3 3.1 4.3l15.6-8.7c-3 5-6 10.1-9 15.1l.1.1c1.4 1.1 2.9 2.1 4.5 2.9h.1c1.6.9 3.3 1.7 5 2.4 3-5 6-10 9-14.9 1.9-3.1 3.7-6.2 5.6-9.3.1-.1.1-.2.2-.2l5.4 9c3.1 5.2 6.2 10.4 9.3 15.5h.1c1.7-.6 3.3-1.4 4.9-2.2h.1c1.6-.9 3.2-1.9 4.6-3-3-5-6-10.1-9.1-15.2 5.3 2.9 10.5 5.8 15.8 8.7v-.1c1.1-1.4 2.2-2.9 3.1-4.3v-.1c.9-1.5 1.8-3.2 2.5-4.9v.1c-5.2-2.9-10.4-6.3-15.5-8.6h18c.1-2.3.3-3.6.3-5.4zm-41.1 5l-.6-.3-.1.1c-.2-.1-.3-.2-.5-.2v-.1c.2.1.4.2.5.2.2.2.5.2.7.4.1 0 0-.1 0-.1z"/><circle fill="#353334" cx="311" cy="489" r="29.2"/><path fill="#D1D7D6" d="M329.9 474.7L319 485.3c-1.3 1.3-3.3 1.3-4.6-.1-1.3-1.3-1.3-3.3.1-4.6l10.8-10.6c-9.3-7.2-22.6-6.7-31.2 1.8-9.4 9.2-9.6 24.2-.3 33.5 9.2 9.4 24.2 9.5 33.7.3 8.4-8.3 9.4-21.5 2.4-30.9z"/><path fill="#3F3F3F" d="M350.4 398.9c0-1.8-.2-3.1-.4-5.4h-18.5c5.3-2.3 10.7-6 16.1-8.9v-.1c-.7-1.6-1.5-3.2-2.4-4.7 0 0 0-.1-.1-.1-.9-1.5-1.9-3-3.1-4.4-5.3 2.9-10.6 5.9-15.9 8.8 3-5.1 6.1-10.2 9.1-15.3l-.1-.1c-1.5-1.1-3-2.1-4.6-3h-.1c-1.5-.9-3.2-1.6-4.9-2.3h.3c-3.1 5.2-6.7 10.4-9 15.5V361c-2.3-.2-4.3-.4-6.2-.3-1.9 0-3.9.2-6.2.4v17.2c-1.5-4.9-5.6-9.9-8.7-14.9h.1c-1.7.7-3.3 1.5-4.9 2.3-1.5.9-3.1 1.9-4.5 2.9 3 5 6 10.1 9 15.2-5.3-2.9-10.5-5.8-15.7-8.7v.1c-1.2 1.4-2.2 2.9-3.1 4.4v.1c-.9 1.5-1.7 3.1-2.4 4.7 5.3 3 10.7 6.7 16.1 9h-18.6c-.2 2.3-.4 3.6-.4 5.4 0 1.8.2 3.1.5 5.4h17.9c-5.2 2.3-10.4 5.7-15.5 8.6.7 1.7 1.5 3.2 2.4 4.8l.1.1c.9 1.5 1.9 3 3.1 4.3l15.6-8.7c-3 5-6 10.1-9 15.1l.1.1c1.4 1.1 2.9 2.1 4.5 2.9h.1c1.6.9 3.3 1.7 5 2.4 3-4.9 6-10 9-14.9 1.9-3.1 3.7-6.2 5.6-9.3.1-.1.1-.2.2-.2l5.4 9c3.1 5.2 6.2 10.4 9.3 15.5h.1c1.7-.6 3.3-1.4 4.9-2.2h.1c1.6-.9 3.2-1.9 4.6-3-3-5-6-10.1-9.1-15.2 5.3 2.9 10.5 5.8 15.8 8.7v-.1c1.1-1.4 2.2-2.9 3.1-4.3v-.1c.9-1.5 1.8-3.2 2.5-4.9v.1c-5.2-2.9-10.4-6.3-15.5-8.6h18c.1-2.3.3-3.6.3-5.4zm-41.1 5l-.6-.3-.1.1c-.2-.1-.3-.2-.5-.2v-.1c.2.1.4.2.5.2.2.2.5.2.7.4.1 0 0-.1 0-.1z"/><circle fill="#353334" cx="311" cy="399" r="29.2"/><path fill="#D1D7D6" d="M300.1 378l8.6 12.5c1 1.5.7 3.5-.8 4.5s-3.5.7-4.5-.8l-8.6-12.5c-8.7 7.9-10.4 21.1-3.5 31 7.4 10.8 22.2 13.6 33 6.1 10.8-7.4 13.5-22.3 6.1-33.1-7-9.9-19.8-13.1-30.3-7.7z"/><path fill="#3F3F3F" d="M524.4 488.9c0-1.8-.2-3.1-.4-5.4h-18.5c5.3-2.3 10.7-6 16.1-8.9v-.1c-.7-1.6-1.5-3.2-2.4-4.7 0 0 0-.1-.1-.1-.9-1.5-1.9-3-3.1-4.4-5.3 2.9-10.6 5.9-15.9 8.8 3-5.1 6.1-10.2 9.1-15.3l-.1-.1c-1.5-1.1-3-2.1-4.6-3h-.1c-1.5-.9-3.2-1.6-4.9-2.3h.3c-3.1 5.2-6.7 10.4-9 15.5V451c-2.3-.2-4.3-.4-6.2-.3-1.9 0-3.9.2-6.2.4v17.2c-1.5-4.9-5.6-9.9-8.7-14.9h.1c-1.7.7-3.3 1.5-4.9 2.3-1.5.9-3.1 1.9-4.5 2.9 3 5 6 10.1 9 15.2-5.3-2.9-10.5-5.8-15.7-8.7v.1c-1.2 1.4-2.2 2.9-3.1 4.4v.1c-.9 1.5-1.7 3.1-2.4 4.7 5.3 3 10.7 6.7 16.1 9h-18.6c-.2 2.3-.4 3.6-.4 5.4 0 1.8.2 3.1.5 5.4h17.9c-5.2 2.3-10.4 5.7-15.5 8.6.7 1.7 1.5 3.2 2.4 4.8l.1.1c.9 1.5 1.9 3 3.1 4.3l15.6-8.7c-3 5-6 10.1-9 15.1l.1.1c1.4 1.1 2.9 2.1 4.5 2.9h.1c1.6.9 3.3 1.7 5 2.4 3-5 6-10 9-14.9 1.9-3.1 3.7-6.2 5.6-9.3.1-.1.1-.2.2-.2l5.4 9c3.1 5.2 6.2 10.4 9.3 15.5h.1c1.7-.6 3.3-1.4 4.9-2.2h.1c1.6-.9 3.2-1.9 4.6-3-3-5-6-10.1-9.1-15.2 5.3 2.9 10.5 5.8 15.8 8.7v-.1c1.1-1.4 2.2-2.9 3.1-4.3v-.1c.9-1.5 1.8-3.2 2.5-4.9v.1c-5.2-2.9-10.4-6.3-15.5-8.6h18c.1-2.3.3-3.6.3-5.4zm-41.1 5l-.6-.3-.1.1c-.2-.1-.3-.2-.5-.2v-.1c.2.1.4.2.5.2.2.2.5.2.7.4.1 0 0-.1 0-.1z"/><circle fill="#353334" cx="485" cy="489" r="29.2"/><path fill="#D1D7D6" d="M508.2 484.1l-14.3 5c-1.7.6-3.6-.3-4.1-2-.6-1.7.3-3.6 2-4.1l14.3-5c-5.3-10.5-17.6-15.7-29-11.7-12.4 4.3-19 17.8-14.7 30.2 4.3 12.4 17.8 19 30.3 14.7 11.3-4 17.8-15.5 15.5-27.1z"/><g><path fill="#3F3F3F" d="M524.4 398.9c0-1.8-.2-3.1-.4-5.4h-18.5c5.3-2.3 10.7-6 16.1-8.9v-.1c-.7-1.6-1.5-3.2-2.4-4.7 0 0 0-.1-.1-.1-.9-1.5-1.9-3-3.1-4.4-5.3 2.9-10.6 5.9-15.9 8.8 3-5.1 6.1-10.2 9.1-15.3l-.1-.1c-1.5-1.1-3-2.1-4.6-3h-.1c-1.5-.9-3.2-1.6-4.9-2.3h.3c-3.1 5.2-6.7 10.4-9 15.5V361c-2.3-.2-4.3-.4-6.2-.3-1.9 0-3.9.2-6.2.4v17.2c-1.5-4.9-5.6-9.9-8.7-14.9h.1c-1.7.7-3.3 1.5-4.9 2.3-1.5.9-3.1 1.9-4.5 2.9 3 5 6 10.1 9 15.2-5.3-2.9-10.5-5.8-15.7-8.7v.1c-1.2 1.4-2.2 2.9-3.1 4.4v.1c-.9 1.5-1.7 3.1-2.4 4.7 5.3 3 10.7 6.7 16.1 9h-18.6c-.2 2.3-.4 3.6-.4 5.4 0 1.8.2 3.1.5 5.4h17.9c-5.2 2.3-10.4 5.7-15.5 8.6.7 1.7 1.5 3.2 2.4 4.8l.1.1c.9 1.5 1.9 3 3.1 4.3l15.6-8.7c-3 5-6 10.1-9 15.1l.1.1c1.4 1.1 2.9 2.1 4.5 2.9h.1c1.6.9 3.3 1.7 5 2.4 3-4.9 6-10 9-14.9 1.9-3.1 3.7-6.2 5.6-9.3.1-.1.1-.2.2-.2l5.4 9c3.1 5.2 6.2 10.4 9.3 15.5h.1c1.7-.6 3.3-1.4 4.9-2.2h.1c1.6-.9 3.2-1.9 4.6-3-3-5-6-10.1-9.1-15.2 5.3 2.9 10.5 5.8 15.8 8.7v-.1c1.1-1.4 2.2-2.9 3.1-4.3v-.1c.9-1.5 1.8-3.2 2.5-4.9v.1c-5.2-2.9-10.4-6.3-15.5-8.6h18c.1-2.3.3-3.6.3-5.4zm-41.1 5l-.6-.3-.1.1c-.2-.1-.3-.2-.5-.2v-.1c.2.1.4.2.5.2.2.2.5.2.7.4.1 0 0-.1 0-.1z"/><circle fill="#353334" cx="485" cy="399" r="29.2"/><path fill="#D1D7D6" d="M490.4 375.9l-1.5 15.1c-.2 1.8-1.8 3.1-3.6 2.9-1.8-.2-3.1-1.8-2.9-3.6l1.5-15.1c-11.8.4-21.7 9.3-22.9 21.3-1.4 13.1 8 24.8 21.1 26.1 13.1 1.4 24.7-8.1 26.1-21.2 1.3-11.9-6.3-22.7-17.8-25.5z"/></g><circle fill="#F45858" cx="398" cy="373.9" r="7.6"/></g><g><path fill="#353334" d="M493.5 860.4h-191c-12.8 0-23.2-10.4-23.2-23.2V594.7c0-5.1 4.2-9.3 9.3-9.3h218.9c5.1 0 9.3 4.2 9.3 9.3v242.5c-.1 12.7-10.6 23.2-23.3 23.2z"/><path fill="#D1D7D6" d="M494.1 844.1H301.9c-5.1 0-9.3-4.2-9.3-9.3v-116c0-5.1 4.2-9.3 9.3-9.3h192.2c5.1 0 9.3 4.2 9.3 9.3v116c0 5.1-4.2 9.3-9.3 9.3z"/><g fill="none" stroke="#CCC" stroke-width="3" stroke-miterlimit="10"><path d="M299.6 723.8h198M299.6 729.2h198M299.6 735.4h198M299.6 740.8h198M299.6 746.2h198M299.6 752.4h198"/></g><g fill="none" stroke="#CCC" stroke-width="3" stroke-miterlimit="10"><path d="M299.6 805h198M299.6 811.2h198M299.6 816.6h198M299.6 822h198M299.6 828.2h198M299.6 833.6h198"/></g><g><path fill="#B6BAB9" d="M502 696.8H293.9c-3.4 0-6.2-2.8-6.2-6.2v-85.1c0-3.4 2.8-6.2 6.2-6.2H502c3.4 0 6.2 2.8 6.2 6.2v85.1c0 3.4-2.8 6.2-6.2 6.2z"/><path fill="none" stroke="#B3B3B3" stroke-width="2" stroke-miterlimit="10" d="M320.5 677.7h159.3M320.5 655.3h159.3"/><g fill="gray"><path d="M503.1 616.3l-6.1-6.2 6.1-6.2M299 616.3l-6.2-6.2 6.2-6.2"/></g></g></g></svg>