<svg version="1.1" id="Layer_2" xmlns="http://www.w3.org/2000/svg" xmlns:xlink="http://www.w3.org/1999/xlink" x="0px" y="0px"
	 viewBox="0 0 792 1224" enable-background="new 0 0 792 1224" xml:space="preserve">
<g id="casing">
	<path fill="#D8B528" d="M528.9,873.1H267c-7.3,0-13.1-6-13.1-13.1V529.6c0-7.3,6-13.1,13.1-13.1h261.7c7.3,0,13.1,6,13.1,13.1V860
		C542,867.2,536.1,873.1,528.9,873.1z"/>
	<path fill="#E2BF22" d="M536.6,537.4H259.3c-3,0-5.4-2.4-5.4-5.4V351.1c0-5.3,4.4-9.7,9.7-9.7h268.6c5.3,0,9.7,4.4,9.7,9.7v180.8
		C542,535,539.6,537.4,536.6,537.4z"/>
	<path fill="#F8D706" d="M526.5,882.7H269.4c-8.5,0-15.5-7-15.5-15.5V570.3c0-6.8,5.6-12.4,12.4-12.4h263.4
		c6.8,0,12.4,5.6,12.4,12.4v296.9C542,875.7,535,882.7,526.5,882.7z"/>
</g>
<g>
	<path id="center_knob_detail" fill="#3F3F3F" d="M350.4,488.9c0-1.8-0.2-3.1-0.4-5.4c-6.2,0-12.4,0-18.5,0c5.3-2.3,10.7-6,16.1-8.9
		c0,0,0,0,0-0.1c-0.7-1.6-1.5-3.2-2.4-4.7c0,0,0-0.1-0.1-0.1c-0.9-1.5-1.9-3-3.1-4.4l0,0c-5.3,2.9-10.6,5.9-15.9,8.8
		c3-5.1,6.1-10.2,9.1-15.3c0,0,0,0-0.1-0.1c-1.5-1.1-3-2.1-4.6-3c0,0,0,0-0.1,0c-1.5-0.9-3.2-1.6-4.9-2.3h0.3
		c-3.1,5.2-6.7,10.4-9,15.5c0-6,0-11.9,0-17.9c-2.3-0.2-4.3-0.4-6.2-0.3c-1.9,0-3.9,0.2-6.2,0.4c0,5.7,0,11.4,0,17.2
		c-1.5-4.9-5.6-9.9-8.7-14.9h0.1c-1.7,0.7-3.3,1.5-4.9,2.3l0,0c-1.5,0.9-3.1,1.9-4.5,2.9l0,0c3,5,6,10.1,9,15.2
		c-5.3-2.9-10.5-5.8-15.7-8.7c0,0,0,0,0,0.1c-1.2,1.4-2.2,2.9-3.1,4.4c0,0,0,0,0,0.1c-0.9,1.5-1.7,3.1-2.4,4.7l0,0
		c5.3,3,10.7,6.7,16.1,9c-6.2,0-12.4,0-18.6,0c-0.2,2.3-0.4,3.6-0.4,5.4c0,1.8,0.2,3.1,0.5,5.4c6,0,12,0,17.9,0
		c-5.2,2.3-10.4,5.7-15.5,8.6l0,0c0.7,1.7,1.5,3.2,2.4,4.8c0,0,0,0,0.1,0.1c0.9,1.5,1.9,3,3.1,4.3l0,0c5.2-2.9,10.4-5.8,15.6-8.7
		c-3,5-6,10.1-9,15.1c0,0,0,0,0.1,0.1c1.4,1.1,2.9,2.1,4.5,2.9c0,0,0,0,0.1,0c1.6,0.9,3.3,1.7,5,2.4l0,0c3-5,6-10,9-14.9
		c1.9-3.1,3.7-6.2,5.6-9.3c0.1-0.1,0.1-0.2,0.2-0.2c1.8,3,3.6,6,5.4,9c3.1,5.2,6.2,10.4,9.3,15.5h0.1c1.7-0.6,3.3-1.4,4.9-2.2
		c0,0,0,0,0.1,0c1.6-0.9,3.2-1.9,4.6-3l0,0c-3-5-6-10.1-9.1-15.2c5.3,2.9,10.5,5.8,15.8,8.7c0,0,0,0,0-0.1c1.1-1.4,2.2-2.9,3.1-4.3
		c0,0,0,0,0-0.1c0.9-1.5,1.8-3.2,2.5-4.9v0.1c-5.2-2.9-10.4-6.3-15.5-8.6c6,0,12,0,18,0C350.2,492,350.4,490.7,350.4,488.9z
		 M309.3,493.9c-0.2-0.1-0.4-0.2-0.6-0.3l-0.1,0.1c-0.2-0.1-0.3-0.2-0.5-0.2l0,0v-0.1c0.2,0.1,0.4,0.2,0.5,0.2
		c0.2,0.2,0.5,0.2,0.7,0.4C309.4,494,309.3,493.9,309.3,493.9z"/>
	<g id="center_knob">
		<circle fill="#353334" cx="311" cy="489" r="29.2"/>
		<g>
			<path fill="#D1D7D6" d="M329.9,474.7L319,485.3c-1.3,1.3-3.3,1.3-4.6-0.1c-1.3-1.3-1.3-3.3,0.1-4.6l10.8-10.6
				c-9.3-7.2-22.6-6.7-31.2,1.8c-9.4,9.2-9.6,24.2-0.3,33.5c9.2,9.4,24.2,9.5,33.7,0.3C335.9,497.3,336.9,484.1,329.9,474.7z"/>
		</g>
	</g>
	<path id="center_knob_detail_1_" fill="#3F3F3F" d="M350.4,398.9c0-1.8-0.2-3.1-0.4-5.4c-6.2,0-12.4,0-18.5,0
		c5.3-2.3,10.7-6,16.1-8.9c0,0,0,0,0-0.1c-0.7-1.6-1.5-3.2-2.4-4.7c0,0,0-0.1-0.1-0.1c-0.9-1.5-1.9-3-3.1-4.4l0,0
		c-5.3,2.9-10.6,5.9-15.9,8.8c3-5.1,6.1-10.2,9.1-15.3c0,0,0,0-0.1-0.1c-1.5-1.1-3-2.1-4.6-3c0,0,0,0-0.1,0
		c-1.5-0.9-3.2-1.6-4.9-2.3h0.3c-3.1,5.2-6.7,10.4-9,15.5c0-6,0-11.9,0-17.9c-2.3-0.2-4.3-0.4-6.2-0.3c-1.9,0-3.9,0.2-6.2,0.4
		c0,5.7,0,11.4,0,17.2c-1.5-4.9-5.6-9.9-8.7-14.9h0.1c-1.7,0.7-3.3,1.5-4.9,2.3l0,0c-1.5,0.9-3.1,1.9-4.5,2.9l0,0c3,5,6,10.1,9,15.2
		c-5.3-2.9-10.5-5.8-15.7-8.7c0,0,0,0,0,0.1c-1.2,1.4-2.2,2.9-3.1,4.4c0,0,0,0,0,0.1c-0.9,1.5-1.7,3.1-2.4,4.7l0,0
		c5.3,3,10.7,6.7,16.1,9c-6.2,0-12.4,0-18.6,0c-0.2,2.3-0.4,3.6-0.4,5.4c0,1.8,0.2,3.1,0.5,5.4c6,0,12,0,17.9,0
		c-5.2,2.3-10.4,5.7-15.5,8.6l0,0c0.7,1.7,1.5,3.2,2.4,4.8c0,0,0,0,0.1,0.1c0.9,1.5,1.9,3,3.1,4.3l0,0c5.2-2.9,10.4-5.8,15.6-8.7
		c-3,5-6,10.1-9,15.1c0,0,0,0,0.1,0.1c1.4,1.1,2.9,2.1,4.5,2.9c0,0,0,0,0.1,0c1.6,0.9,3.3,1.7,5,2.4l0,0c3-4.9,6-10,9-14.9
		c1.9-3.1,3.7-6.2,5.6-9.3c0.1-0.1,0.1-0.2,0.2-0.2c1.8,3,3.6,6,5.4,9c3.1,5.2,6.2,10.4,9.3,15.5h0.1c1.7-0.6,3.3-1.4,4.9-2.2
		c0,0,0,0,0.1,0c1.6-0.9,3.2-1.9,4.6-3l0,0c-3-5-6-10.1-9.1-15.2c5.3,2.9,10.5,5.8,15.8,8.7c0,0,0,0,0-0.1c1.1-1.4,2.2-2.9,3.1-4.3
		c0,0,0,0,0-0.1c0.9-1.5,1.8-3.2,2.5-4.9v0.1c-5.2-2.9-10.4-6.3-15.5-8.6c6,0,12,0,18,0C350.2,402,350.4,400.7,350.4,398.9z
		 M309.3,403.9c-0.2-0.1-0.4-0.2-0.6-0.3l-0.1,0.1c-0.2-0.1-0.3-0.2-0.5-0.2l0,0v-0.1c0.2,0.1,0.4,0.2,0.5,0.2
		c0.2,0.2,0.5,0.2,0.7,0.4C309.4,404,309.3,403.9,309.3,403.9z"/>
	<g id="center_knob_1_">
		<circle fill="#353334" cx="311" cy="399" r="29.2"/>
		<g>
			<path fill="#D1D7D6" d="M300.1,378l8.6,12.5c1,1.5,0.7,3.5-0.8,4.5c-1.5,1-3.5,0.7-4.5-0.8l-8.6-12.5c-8.7,7.9-10.4,21.1-3.5,31
				c7.4,10.8,22.2,13.6,33,6.1c10.8-7.4,13.5-22.3,6.1-33.1C323.4,375.8,310.6,372.6,300.1,378z"/>
		</g>
	</g>
	<path id="center_knob_detail_3_" fill="#3F3F3F" d="M524.4,488.9c0-1.8-0.2-3.1-0.4-5.4c-6.2,0-12.4,0-18.5,0
		c5.3-2.3,10.7-6,16.1-8.9c0,0,0,0,0-0.1c-0.7-1.6-1.5-3.2-2.4-4.7c0,0,0-0.1-0.1-0.1c-0.9-1.5-1.9-3-3.1-4.4l0,0
		c-5.3,2.9-10.6,5.9-15.9,8.8c3-5.1,6.1-10.2,9.1-15.3c0,0,0,0-0.1-0.1c-1.5-1.1-3-2.1-4.6-3c0,0,0,0-0.1,0
		c-1.5-0.9-3.2-1.6-4.9-2.3h0.3c-3.1,5.2-6.7,10.4-9,15.5c0-6,0-11.9,0-17.9c-2.3-0.2-4.3-0.4-6.2-0.3c-1.9,0-3.9,0.2-6.2,0.4
		c0,5.7,0,11.4,0,17.2c-1.5-4.9-5.6-9.9-8.7-14.9h0.1c-1.7,0.7-3.3,1.5-4.9,2.3l0,0c-1.5,0.9-3.1,1.9-4.5,2.9l0,0c3,5,6,10.1,9,15.2
		c-5.3-2.9-10.5-5.8-15.7-8.7c0,0,0,0,0,0.1c-1.2,1.4-2.2,2.9-3.1,4.4c0,0,0,0,0,0.1c-0.9,1.5-1.7,3.1-2.4,4.7l0,0
		c5.3,3,10.7,6.7,16.1,9c-6.2,0-12.4,0-18.6,0c-0.2,2.3-0.4,3.6-0.4,5.4c0,1.8,0.2,3.1,0.5,5.4c6,0,12,0,17.9,0
		c-5.2,2.3-10.4,5.7-15.5,8.6l0,0c0.7,1.7,1.5,3.2,2.4,4.8c0,0,0,0,0.1,0.1c0.9,1.5,1.9,3,3.1,4.3l0,0c5.2-2.9,10.4-5.8,15.6-8.7
		c-3,5-6,10.1-9,15.1c0,0,0,0,0.1,0.1c1.4,1.1,2.9,2.1,4.5,2.9c0,0,0,0,0.1,0c1.6,0.9,3.3,1.7,5,2.4l0,0c3-5,6-10,9-14.9
		c1.9-3.1,3.7-6.2,5.6-9.3c0.1-0.1,0.1-0.2,0.2-0.2c1.8,3,3.6,6,5.4,9c3.1,5.2,6.2,10.4,9.3,15.5h0.1c1.7-0.6,3.3-1.4,4.9-2.2
		c0,0,0,0,0.1,0c1.6-0.9,3.2-1.9,4.6-3l0,0c-3-5-6-10.1-9.1-15.2c5.3,2.9,10.5,5.8,15.8,8.7c0,0,0,0,0-0.1c1.1-1.4,2.2-2.9,3.1-4.3
		c0,0,0,0,0-0.1c0.9-1.5,1.8-3.2,2.5-4.9v0.1c-5.2-2.9-10.4-6.3-15.5-8.6c6,0,12,0,18,0C524.2,492,524.4,490.7,524.4,488.9z
		 M483.3,493.9c-0.2-0.1-0.4-0.2-0.6-0.3l-0.1,0.1c-0.2-0.1-0.3-0.2-0.5-0.2l0,0v-0.1c0.2,0.1,0.4,0.2,0.5,0.2
		c0.2,0.2,0.5,0.2,0.7,0.4C483.4,494,483.3,493.9,483.3,493.9z"/>
	<g id="center_knob_3_">
		<circle fill="#353334" cx="485" cy="489" r="29.2"/>
		<g>
			<path fill="#D1D7D6" d="M508.2,484.1l-14.3,5c-1.7,0.6-3.6-0.3-4.1-2c-0.6-1.7,0.3-3.6,2-4.1l14.3-5c-5.3-10.5-17.6-15.7-29-11.7
				c-12.4,4.3-19,17.8-14.7,30.2c4.3,12.4,17.8,19,30.3,14.7C504,507.2,510.5,495.7,508.2,484.1z"/>
		</g>
	</g>
	<g id="knobs_2_">
		<path id="center_knob_detail_2_" fill="#3F3F3F" d="M524.4,398.9c0-1.8-0.2-3.1-0.4-5.4c-6.2,0-12.4,0-18.5,0
			c5.3-2.3,10.7-6,16.1-8.9c0,0,0,0,0-0.1c-0.7-1.6-1.5-3.2-2.4-4.7c0,0,0-0.1-0.1-0.1c-0.9-1.5-1.9-3-3.1-4.4l0,0
			c-5.3,2.9-10.6,5.9-15.9,8.8c3-5.1,6.1-10.2,9.1-15.3c0,0,0,0-0.1-0.1c-1.5-1.1-3-2.1-4.6-3c0,0,0,0-0.1,0
			c-1.5-0.9-3.2-1.6-4.9-2.3h0.3c-3.1,5.2-6.7,10.4-9,15.5c0-6,0-11.9,0-17.9c-2.3-0.2-4.3-0.4-6.2-0.3c-1.9,0-3.9,0.2-6.2,0.4
			c0,5.7,0,11.4,0,17.2c-1.5-4.9-5.6-9.9-8.7-14.9h0.1c-1.7,0.7-3.3,1.5-4.9,2.3l0,0c-1.5,0.9-3.1,1.9-4.5,2.9l0,0
			c3,5,6,10.1,9,15.2c-5.3-2.9-10.5-5.8-15.7-8.7c0,0,0,0,0,0.1c-1.2,1.4-2.2,2.9-3.1,4.4c0,0,0,0,0,0.1c-0.9,1.5-1.7,3.1-2.4,4.7
			l0,0c5.3,3,10.7,6.7,16.1,9c-6.2,0-12.4,0-18.6,0c-0.2,2.3-0.4,3.6-0.4,5.4c0,1.8,0.2,3.1,0.5,5.4c6,0,12,0,17.9,0
			c-5.2,2.3-10.4,5.7-15.5,8.6l0,0c0.7,1.7,1.5,3.2,2.4,4.8c0,0,0,0,0.1,0.1c0.9,1.5,1.9,3,3.1,4.3l0,0c5.2-2.9,10.4-5.8,15.6-8.7
			c-3,5-6,10.1-9,15.1c0,0,0,0,0.1,0.1c1.4,1.1,2.9,2.1,4.5,2.9c0,0,0,0,0.1,0c1.6,0.9,3.3,1.7,5,2.4l0,0c3-4.9,6-10,9-14.9
			c1.9-3.1,3.7-6.2,5.6-9.3c0.1-0.1,0.1-0.2,0.2-0.2c1.8,3,3.6,6,5.4,9c3.1,5.2,6.2,10.4,9.3,15.5h0.1c1.7-0.6,3.3-1.4,4.9-2.2
			c0,0,0,0,0.1,0c1.6-0.9,3.2-1.9,4.6-3l0,0c-3-5-6-10.1-9.1-15.2c5.3,2.9,10.5,5.8,15.8,8.7c0,0,0,0,0-0.1c1.1-1.4,2.2-2.9,3.1-4.3
			c0,0,0,0,0-0.1c0.9-1.5,1.8-3.2,2.5-4.9v0.1c-5.2-2.9-10.4-6.3-15.5-8.6c6,0,12,0,18,0C524.2,402,524.4,400.7,524.4,398.9z
			 M483.3,403.9c-0.2-0.1-0.4-0.2-0.6-0.3l-0.1,0.1c-0.2-0.1-0.3-0.2-0.5-0.2l0,0v-0.1c0.2,0.1,0.4,0.2,0.5,0.2
			c0.2,0.2,0.5,0.2,0.7,0.4C483.4,404,483.3,403.9,483.3,403.9z"/>
		<g id="center_knob_2_">
			<circle fill="#353334" cx="485" cy="399" r="29.2"/>
			<g>
				<path fill="#D1D7D6" d="M490.4,375.9l-1.5,15.1c-0.2,1.8-1.8,3.1-3.6,2.9c-1.8-0.2-3.1-1.8-2.9-3.6l1.5-15.1
					c-11.8,0.4-21.7,9.3-22.9,21.3c-1.4,13.1,8,24.8,21.1,26.1c13.1,1.4,24.7-8.1,26.1-21.2C509.5,389.5,501.9,378.7,490.4,375.9z"
					/>
			</g>
		</g>
	</g>
	<circle id="led" fill="#F45858" cx="398" cy="373.9" r="7.6"/>
</g>
<g>
	<path fill="#353334" d="M493.5,860.4h-191c-12.8,0-23.2-10.4-23.2-23.2V594.7c0-5.1,4.2-9.3,9.3-9.3h218.9c5.1,0,9.3,4.2,9.3,9.3
		v242.5C516.7,849.9,506.2,860.4,493.5,860.4z"/>
	<g>
		<path id="footplate" fill="#D1D7D6" d="M494.1,844.1H301.9c-5.1,0-9.3-4.2-9.3-9.3v-116c0-5.1,4.2-9.3,9.3-9.3h192.2
			c5.1,0,9.3,4.2,9.3,9.3v116C503.4,839.9,499.2,844.1,494.1,844.1z"/>
		<g id="lower_ridges">
			<line fill="none" stroke="#CCCCCC" stroke-width="3" stroke-miterlimit="10" x1="299.6" y1="723.8" x2="497.6" y2="723.8"/>
			<line fill="none" stroke="#CCCCCC" stroke-width="3" stroke-miterlimit="10" x1="299.6" y1="729.2" x2="497.6" y2="729.2"/>
			<line fill="none" stroke="#CCCCCC" stroke-width="3" stroke-miterlimit="10" x1="299.6" y1="735.4" x2="497.6" y2="735.4"/>
			<line fill="none" stroke="#CCCCCC" stroke-width="3" stroke-miterlimit="10" x1="299.6" y1="740.8" x2="497.6" y2="740.8"/>
			<line fill="none" stroke="#CCCCCC" stroke-width="3" stroke-miterlimit="10" x1="299.6" y1="746.2" x2="497.6" y2="746.2"/>
			<line fill="none" stroke="#CCCCCC" stroke-width="3" stroke-miterlimit="10" x1="299.6" y1="752.4" x2="497.6" y2="752.4"/>
		</g>
		<g id="upper_ridges">
			<line fill="none" stroke="#CCCCCC" stroke-width="3" stroke-miterlimit="10" x1="299.6" y1="805" x2="497.6" y2="805"/>
			<line fill="none" stroke="#CCCCCC" stroke-width="3" stroke-miterlimit="10" x1="299.6" y1="811.2" x2="497.6" y2="811.2"/>
			<line fill="none" stroke="#CCCCCC" stroke-width="3" stroke-miterlimit="10" x1="299.6" y1="816.6" x2="497.6" y2="816.6"/>
			<line fill="none" stroke="#CCCCCC" stroke-width="3" stroke-miterlimit="10" x1="299.6" y1="822" x2="497.6" y2="822"/>
			<line fill="none" stroke="#CCCCCC" stroke-width="3" stroke-miterlimit="10" x1="299.6" y1="828.2" x2="497.6" y2="828.2"/>
			<line fill="none" stroke="#CCCCCC" stroke-width="3" stroke-miterlimit="10" x1="299.6" y1="833.6" x2="497.6" y2="833.6"/>
		</g>
	</g>
	<g>
		<path id="title_plate" fill="#B6BAB9" d="M502,696.8H293.9c-3.4,0-6.2-2.8-6.2-6.2v-85.1c0-3.4,2.8-6.2,6.2-6.2H502
			c3.4,0,6.2,2.8,6.2,6.2v85.1C508.2,694,505.4,696.8,502,696.8z"/>

			<line id="lower_stripe" fill="none" stroke="#B3B3B3" stroke-width="2" stroke-miterlimit="10" x1="320.5" y1="677.7" x2="479.8" y2="677.7"/>

			<line id="upper_stripe" fill="none" stroke="#B3B3B3" stroke-width="2" stroke-miterlimit="10" x1="320.5" y1="655.3" x2="479.8" y2="655.3"/>
		<g id="input_outputs">
			<polygon id="input_detail_1" fill="#808080" points="503.1,616.3 497,610.1 503.1,603.9 			"/>
			<polygon id="output_detail_1" fill="#808080" points="299,616.3 292.8,610.1 299,603.9 			"/>
		</g>
	</g>
</g>
</svg>
