<svg version="1.1" id="Layer_2" xmlns="http://www.w3.org/2000/svg" xmlns:xlink="http://www.w3.org/1999/xlink" x="0px" y="0px"
	 viewBox="0 0 792 1224" enable-background="new 0 0 792 1224" xml:space="preserve">
<g id="casing">
	<path fill="#007F46" d="M527.9,873.1H266.1c-7.3,0-13.1-6-13.1-13.1V529.6c0-7.3,6-13.1,13.1-13.1h261.7c7.3,0,13.1,6,13.1,13.1
		V860C541,867.2,535.1,873.1,527.9,873.1z"/>
	<path fill="#02994A" d="M535.6,537.4H258.3c-3,0-5.4-2.4-5.4-5.4V351.1c0-5.3,4.4-9.7,9.7-9.7h268.6c5.3,0,9.7,4.4,9.7,9.7v180.8
		C541,535,538.6,537.4,535.6,537.4z"/>
	<path fill="#00AD58" d="M525.6,882.7H268.4c-8.5,0-15.5-7-15.5-15.5V570.3c0-6.8,5.6-12.4,12.4-12.4h263.4
		c6.8,0,12.4,5.6,12.4,12.4v296.9C541,875.7,534.1,882.7,525.6,882.7z"/>
</g>
<g>
	<g id="knobs">
		<path id="left_knob_detail" fill="#3F3F3F" d="M365.2,411.3c0-2.2-0.2-4.3-0.5-6.6c-7.7,0-15.5,0-23.2,0
			c6.7-3.9,13.5-7.6,20.2-11.4c0,0,0-0.1,0-0.2c-0.9-2.1-1.9-4.1-2.9-6c0,0,0-0.1-0.1-0.1c-1.2-1.9-2.5-3.8-3.9-5.6l0,0
			c-6.7,3.7-13.3,7.3-20,11.1c3.9-6.4,7.7-12.8,11.5-19.2c0,0-0.1,0-0.1-0.1c-1.9-1.4-3.8-2.6-5.8-3.8h-0.1c-2-1.1-4-2.1-6.2-2.9
			l0,0c-4,6.5-7.9,13-11.8,19.5c0-7.5,0-15,0-22.4c-2.3-0.3-4.6-0.5-7-0.5s-4.6,0.2-7,0.5c0,7.2,0,14.4,0,21.7
			c-3.9-6.3-7.5-12.5-11.3-18.7h-0.1c-2.2,0.9-4.3,1.9-6.3,2.9c0,0-0.1,0-0.1,0.1c-2,1.1-3.9,2.3-5.6,3.7l0,0
			c3.8,6.3,7.6,12.7,11.4,19c-6.6-3.6-13.1-7.3-19.7-11c0,0,0,0-0.1,0.1c-1.5,1.8-2.7,3.6-3.9,5.6c0,0,0,0,0,0.1
			c-1.2,1.9-2.2,3.9-3,6v0.2c6.7,3.8,13.5,7.5,20.2,11.4c-7.7,0-15.5,0-23.3,0c-0.3,2.3-0.5,4.3-0.5,6.6c0,2.2,0.2,4.3,0.5,6.6
			c7.5,0,15,0,22.5,0c-6.5,3.1-13,7.3-19.5,10.8v0.1c0.9,2.1,1.9,4.1,3,6c0,0,0,0.1,0.1,0.1c1.2,1.9,2.5,3.7,3.9,5.5l0,0
			c6.6-3.6,13.1-7.3,19.6-10.9c-3.8,6.3-7.6,12.6-11.3,18.9c0,0,0.1,0,0.1,0.1c1.8,1.3,3.6,2.6,5.6,3.7h0.1c2,1.2,4.1,2.1,6.3,2.9
			l0,0c3.7-6.3,7.5-12.5,11.2-18.7c2.3-3.9,4.6-7.7,7-11.6c0.1-0.1,0.2-0.2,0.2-0.3c2.2,3.8,4.5,7.5,6.7,11.3
			c3.9,6.5,7.8,13,11.7,19.4h0.1c2.2-0.9,4.2-1.8,6.1-2.9c0,0,0.1,0,0.1-0.1c2-1.2,4-2.4,5.8-3.8l0,0c-3.8-6.3-7.6-12.7-11.4-19
			c6.6,3.6,13.2,7.3,19.8,11c0,0,0,0,0.1-0.1c1.4-1.7,2.7-3.6,3.9-5.4c0,0,0,0,0-0.1c1.2-1.9,2.2-3.9,3.1-6l0,0
			c-6.5-3.6-13-7.8-19.5-10.9c7.5,0,15.1,0,22.6,0C365,415.5,365.2,413.5,365.2,411.3z M313.7,417.6c-0.2-0.2-0.5-0.2-0.8-0.4
			c-0.1,0-0.1,0.1-0.2,0.1c-0.2-0.1-0.4-0.2-0.5-0.2l0,0v-0.2c0.2,0.1,0.5,0.2,0.7,0.2C313.2,417.2,313.5,417.4,313.7,417.6
			C313.8,417.6,313.7,417.6,313.7,417.6z"/>
		<g id="left_knob">
			<circle fill="#353334" cx="315.8" cy="413.6" r="34.8"/>
			<g>
				<path fill="#D1D7D6" d="M307.8,386.5l7.3,16.6c0.9,2-0.1,4.2-2,5.1c-2,0.9-4.2-0.1-5.1-2l-7.3-16.6c-12,7.3-17,22.4-11.2,35.5
					c6.3,14.3,22.9,20.8,37.2,14.5c14.3-6.3,20.8-23,14.6-37.4C335.5,389.3,321.3,382.7,307.8,386.5z"/>
			</g>
		</g>
		<path id="right_knob_detail" fill="#3F3F3F" d="M527.6,411.3c0-2.2-0.2-4.3-0.5-6.6c-7.7,0-15.5,0-23.2,0
			c6.7-3.9,13.5-7.6,20.2-11.4c0,0,0-0.1,0-0.2c-0.9-2.1-1.9-4.1-2.9-6c0,0,0-0.1-0.1-0.1c-1.2-1.9-2.5-3.8-3.9-5.6l0,0
			c-6.7,3.7-13.3,7.3-20,11.1c3.9-6.4,7.7-12.8,11.5-19.2c0,0-0.1,0-0.1-0.1c-1.9-1.4-3.8-2.6-5.8-3.8h-0.1c-2-1.1-4-2.1-6.2-2.9
			l0,0c-4,6.5-7.9,13-11.8,19.5c0-7.5,0-15,0-22.4c-2.3-0.3-4.6-0.5-7-0.5s-4.6,0.2-7,0.5c0,7.2,0,14.4,0,21.7
			c-3.9-6.3-7.5-12.5-11.3-18.7h-0.1c-2.2,0.9-4.3,1.9-6.3,2.9c0,0-0.1,0-0.1,0.1c-2,1.1-3.9,2.3-5.6,3.7l0,0
			c3.8,6.3,7.6,12.7,11.4,19c-6.6-3.6-13.1-7.3-19.7-11c0,0,0,0-0.1,0.1c-1.5,1.8-2.7,3.6-3.9,5.6c0,0,0,0,0,0.1
			c-1.2,1.9-2.2,3.9-3,6v0.2c6.7,3.8,13.5,7.5,20.2,11.4c-7.7,0-15.5,0-23.3,0c-0.3,2.3-0.5,4.3-0.5,6.6c0,2.2,0.2,4.3,0.5,6.6
			c7.5,0,15,0,22.5,0c-6.5,3.1-13,7.3-19.5,10.8v0.1c0.9,2.1,1.9,4.1,3,6c0,0,0,0.1,0.1,0.1c1.2,1.9,2.5,3.7,3.9,5.5l0,0
			c6.6-3.6,13.1-7.3,19.6-10.9c-3.8,6.3-7.6,12.6-11.3,18.9c0,0,0.1,0,0.1,0.1c1.8,1.3,3.6,2.6,5.6,3.7h0.1c2,1.2,4.1,2.1,6.3,2.9
			l0,0c3.7-6.3,7.5-12.5,11.2-18.7c2.3-3.9,4.6-7.7,7-11.6c0.1-0.1,0.2-0.2,0.2-0.3c2.2,3.8,4.5,7.5,6.7,11.3
			c3.9,6.5,7.8,13,11.7,19.4h0.1c2.2-0.9,4.2-1.8,6.1-2.9c0,0,0.1,0,0.1-0.1c2-1.2,4-2.4,5.8-3.8l0,0c-3.8-6.3-7.6-12.7-11.4-19
			c6.6,3.6,13.2,7.3,19.8,11c0,0,0,0,0.1-0.1c1.4-1.7,2.7-3.6,3.9-5.4c0,0,0,0,0-0.1c1.2-1.9,2.2-3.9,3.1-6l0,0
			c-6.5-3.6-13-7.8-19.5-10.9c7.5,0,15.1,0,22.6,0C527.4,415.5,527.6,413.5,527.6,411.3z M476.1,417.6c-0.2-0.2-0.5-0.2-0.8-0.4
			c-0.1,0-0.1,0.1-0.2,0.1c-0.2-0.1-0.4-0.2-0.5-0.2l0,0v-0.2c0.2,0.1,0.5,0.2,0.7,0.2C475.7,417.2,475.9,417.4,476.1,417.6
			C476.2,417.6,476.1,417.6,476.1,417.6z"/>
		<g id="right_knob">
			<circle fill="#353334" cx="478.2" cy="413.6" r="34.8"/>
			<g>
				<path fill="#D1D7D6" d="M505.2,422l-17.8-3.1c-2.1-0.4-3.5-2.4-3.1-4.5c0.4-2.1,2.4-3.5,4.5-3.1l17.8,3.1
					c0.6-14.1-9.2-26.5-23.3-29c-15.4-2.7-30.1,7.5-32.8,22.9c-2.7,15.4,7.5,30.2,22.8,32.9C487.5,443.5,500.9,435.4,505.2,422z"/>
			</g>
		</g>
		<path id="center_knob_detail" fill="#3F3F3F" d="M436.4,468.9c0-1.8-0.2-3.1-0.4-5.4c-6.2,0-12.4,0-18.5,0
			c5.3-2.3,10.7-6,16.1-8.9c0,0,0,0,0-0.1c-0.7-1.6-1.5-3.2-2.4-4.7c0,0,0-0.1-0.1-0.1c-0.9-1.5-1.9-3-3.1-4.4l0,0
			c-5.3,2.9-10.6,5.9-15.9,8.8c3-5.1,6.1-10.2,9.1-15.3c0,0,0,0-0.1-0.1c-1.5-1.1-3-2.1-4.6-3c0,0,0,0-0.1,0
			c-1.5-0.9-3.2-1.6-4.9-2.3h0.3c-3.1,5.2-6.7,10.4-9,15.5c0-6,0-11.9,0-17.9c-2.3-0.2-4.3-0.4-6.2-0.3c-1.9,0-3.9,0.2-6.2,0.4
			c0,5.7,0,11.4,0,17.2c-1.5-4.9-5.6-9.9-8.7-14.9h0.1c-1.7,0.7-3.3,1.5-5,2.3l0,0c-1.5,0.9-3.1,1.9-4.5,2.9l0,0c3,5,6,10.1,9,15.2
			c-5.3-2.9-10.5-5.8-15.7-8.7c0,0,0,0,0,0.1c-1.2,1.4-2.2,2.9-3.1,4.4c0,0,0,0,0,0.1c-0.9,1.5-1.7,3.1-2.4,4.7l0,0
			c5.3,3,10.7,6.7,16.1,9c-6.2,0-12.4,0-18.6,0c-0.2,2.3-0.4,3.6-0.4,5.4c0,1.8,0.2,3.1,0.5,5.4c6,0,12,0,17.9,0
			c-5.2,2.3-10.4,5.7-15.5,8.6l0,0c0.7,1.7,1.5,3.2,2.4,4.8c0,0,0,0,0.1,0.1c0.9,1.5,1.9,3,3.1,4.3l0,0c5.2-2.9,10.4-5.8,15.6-8.7
			c-3,5-6,10.1-9,15.1c0,0,0,0,0.1,0.1c1.4,1.1,2.9,2.1,4.5,2.9c0,0,0,0,0.1,0c1.6,0.9,3.3,1.7,5,2.4l0,0c3-4.9,6-10,9-14.9
			c1.9-3.1,3.7-6.2,5.6-9.3c0.1-0.1,0.1-0.2,0.2-0.2c1.8,3,3.6,6,5.4,9c3.1,5.2,6.2,10.4,9.3,15.5h0.1c1.7-0.6,3.3-1.4,4.9-2.2
			c0,0,0,0,0.1,0c1.6-0.9,3.2-1.9,4.6-3l0,0c-3-5-6-10.1-9.1-15.2c5.3,2.9,10.5,5.8,15.8,8.7c0,0,0,0,0-0.1c1.1-1.4,2.2-2.9,3.1-4.3
			c0,0,0,0,0-0.1c0.9-1.5,1.8-3.2,2.5-4.9v0.1c-5.2-2.9-10.4-6.3-15.5-8.6c6,0,12,0,18,0C436.2,472,436.4,470.7,436.4,468.9z
			 M395.3,473.9c-0.2-0.1-0.4-0.2-0.6-0.3l-0.1,0.1c-0.2-0.1-0.3-0.2-0.5-0.2l0,0v-0.1c0.2,0.1,0.4,0.2,0.5,0.2
			c0.2,0.2,0.5,0.2,0.7,0.4C395.4,474,395.3,473.9,395.3,473.9z"/>
		<g id="center_knob">
			<circle fill="#353334" cx="397" cy="469" r="29.2"/>
			<g>
				<path fill="#D1D7D6" d="M392.2,445.8l5,14.3c0.6,1.7-0.3,3.6-2,4.1c-1.7,0.6-3.6-0.3-4.1-2l-5-14.3c-10.5,5.3-15.7,17.6-11.8,29
					c4.3,12.4,17.7,19,30.2,14.7c12.4-4.3,19-17.8,14.7-30.3C415.2,450,403.7,443.5,392.2,445.8z"/>
			</g>
		</g>
	</g>
	<circle id="led" fill="#F45858" cx="397.3" cy="373.9" r="7.6"/>
</g>
<g>
	<path fill="#353334" d="M492.4,860.4h-191c-12.8,0-23.2-10.4-23.2-23.2V594.7c0-5.1,4.2-9.3,9.3-9.3h218.9c5.1,0,9.3,4.2,9.3,9.3
		v242.5C515.7,849.9,505.2,860.4,492.4,860.4z"/>
	<g>
		<path id="footplate" fill="#D1D7D6" d="M493.1,844.1H300.9c-5.1,0-9.3-4.2-9.3-9.3v-116c0-5.1,4.2-9.3,9.3-9.3h192.2
			c5.1,0,9.3,4.2,9.3,9.3v116C502.3,839.9,498.2,844.1,493.1,844.1z"/>
		<g id="lower_ridges">
			<line fill="none" stroke="#CCCCCC" stroke-width="3" stroke-miterlimit="10" x1="298.5" y1="723.8" x2="496.5" y2="723.8"/>
			<line fill="none" stroke="#CCCCCC" stroke-width="3" stroke-miterlimit="10" x1="298.5" y1="729.2" x2="496.5" y2="729.2"/>
			<line fill="none" stroke="#CCCCCC" stroke-width="3" stroke-miterlimit="10" x1="298.5" y1="735.4" x2="496.5" y2="735.4"/>
			<line fill="none" stroke="#CCCCCC" stroke-width="3" stroke-miterlimit="10" x1="298.5" y1="740.8" x2="496.5" y2="740.8"/>
			<line fill="none" stroke="#CCCCCC" stroke-width="3" stroke-miterlimit="10" x1="298.5" y1="746.2" x2="496.5" y2="746.2"/>
			<line fill="none" stroke="#CCCCCC" stroke-width="3" stroke-miterlimit="10" x1="298.5" y1="752.4" x2="496.5" y2="752.4"/>
		</g>
		<g id="upper_ridges">
			<line fill="none" stroke="#CCCCCC" stroke-width="3" stroke-miterlimit="10" x1="298.5" y1="805" x2="496.5" y2="805"/>
			<line fill="none" stroke="#CCCCCC" stroke-width="3" stroke-miterlimit="10" x1="298.5" y1="811.2" x2="496.5" y2="811.2"/>
			<line fill="none" stroke="#CCCCCC" stroke-width="3" stroke-miterlimit="10" x1="298.5" y1="816.6" x2="496.5" y2="816.6"/>
			<line fill="none" stroke="#CCCCCC" stroke-width="3" stroke-miterlimit="10" x1="298.5" y1="822" x2="496.5" y2="822"/>
			<line fill="none" stroke="#CCCCCC" stroke-width="3" stroke-miterlimit="10" x1="298.5" y1="828.2" x2="496.5" y2="828.2"/>
			<line fill="none" stroke="#CCCCCC" stroke-width="3" stroke-miterlimit="10" x1="298.5" y1="833.6" x2="496.5" y2="833.6"/>
		</g>
	</g>
	<g>
		<path id="title_plate" fill="#B6BAB9" d="M501,696.8H292.9c-3.4,0-6.2-2.8-6.2-6.2v-85.1c0-3.4,2.8-6.2,6.2-6.2H501
			c3.4,0,6.2,2.8,6.2,6.2v85.1C507.1,694,504.4,696.8,501,696.8z"/>

			<line id="lower_stripe" fill="none" stroke="#B3B3B3" stroke-width="2" stroke-miterlimit="10" x1="319.4" y1="677.7" x2="478.8" y2="677.7"/>

			<line id="upper_stripe" fill="none" stroke="#B3B3B3" stroke-width="2" stroke-miterlimit="10" x1="319.4" y1="655.3" x2="478.8" y2="655.3"/>
		<g id="input_outputs">
			<polygon id="input_detail_1" fill="#808080" points="502.1,616.3 495.9,610.1 502.1,603.9 			"/>
			<polygon id="output_detail_1" fill="#808080" points="297.9,616.3 291.7,610.1 297.9,603.9 			"/>
		</g>
	</g>
</g>
</svg>
